<?xml version="1.0" encoding="UTF-8" ?>
<!DOCTYPE svg PUBLIC "-//W3C//DTD SVG 1.1//EN" "http://www.w3.org/Graphics/SVG/1.1/DTD/svg11.dtd">
<svg width="424pt" height="104pt" viewBox="0 0 424 104" version="1.1" xmlns="http://www.w3.org/2000/svg">
<g id="#ffffffff">
</g>
<g id="#901c1cff">
<path fill="#901c1c" opacity="1.00" d=" M 140.20 37.82 C 141.91 37.83 143.62 37.83 145.32 37.83 C 145.34 41.10 145.36 44.37 145.26 47.64 C 147.99 45.18 151.99 43.82 155.48 45.51 C 158.80 46.79 160.15 50.55 160.19 53.86 C 160.28 57.99 160.16 62.12 160.21 66.25 C 158.42 66.24 156.64 66.23 154.85 66.22 C 154.76 61.46 155.14 56.66 154.53 51.93 C 153.15 48.18 146.46 48.37 145.55 52.42 C 145.04 57.00 145.45 61.64 145.36 66.24 C 143.61 66.24 141.87 66.24 140.13 66.23 C 140.23 56.76 140.09 47.29 140.20 37.82 Z" />
<path fill="#901c1c" opacity="1.00" d=" M 322.58 37.83 C 324.25 37.83 325.92 37.82 327.60 37.82 C 327.63 41.10 327.64 44.38 327.54 47.66 C 329.95 45.75 332.99 44.17 336.15 44.96 C 339.51 45.51 342.20 48.55 342.39 51.94 C 342.69 56.70 342.40 61.48 342.54 66.24 C 340.81 66.24 339.10 66.24 337.39 66.25 C 337.32 61.70 337.68 57.12 337.26 52.58 C 336.09 48.05 328.73 48.25 327.76 52.83 C 327.40 57.26 327.66 61.73 327.70 66.18 C 325.98 66.21 324.26 66.24 322.55 66.28 C 322.60 56.79 322.55 47.31 322.58 37.83 Z" />
<path fill="#901c1c" opacity="1.00" d=" M 190.58 39.71 C 192.31 39.71 194.05 39.70 195.78 39.69 C 195.79 41.50 195.79 43.30 195.79 45.10 C 197.39 45.08 198.98 45.05 200.58 45.03 C 200.59 46.53 200.60 48.04 200.62 49.54 C 199.00 49.54 197.39 49.54 195.78 49.55 C 195.80 53.50 195.78 57.45 195.82 61.40 C 197.42 61.55 199.03 61.67 200.65 61.78 C 200.64 63.28 200.63 64.79 200.63 66.29 C 197.06 66.50 191.93 66.31 190.86 62.02 C 190.25 57.90 190.69 53.71 190.63 49.57 C 190.01 49.55 188.77 49.52 188.15 49.51 C 188.23 47.41 187.47 44.51 190.60 44.75 C 190.59 43.07 190.58 41.39 190.58 39.71 Z" />
<path fill="#901c1c" opacity="1.00" d=" M 31.46 66.24 C 31.51 57.35 31.51 48.47 31.46 39.58 C 33.25 39.59 35.05 39.59 36.85 39.61 C 40.71 45.74 44.95 51.63 48.66 57.85 C 49.26 51.78 48.75 45.70 48.84 39.62 C 50.66 39.60 52.49 39.59 54.31 39.58 C 54.28 48.46 54.28 57.35 54.31 66.23 C 52.56 66.24 50.81 66.24 49.06 66.24 C 44.96 60.04 40.90 53.81 36.76 47.63 C 36.67 53.83 36.69 60.03 36.76 66.23 C 34.99 66.23 33.23 66.24 31.46 66.24 Z" />
<path fill="#901c1c" opacity="1.00" d=" M 84.75 47.84 C 89.10 42.47 99.55 44.22 100.72 51.54 C 99.14 51.58 97.56 51.60 95.99 51.60 C 94.90 50.39 93.80 48.78 91.98 48.78 C 90.24 48.38 89.18 50.20 87.92 51.01 C 90.68 53.97 95.06 53.65 98.29 55.77 C 101.29 57.66 101.39 62.59 98.47 64.62 C 93.44 68.44 84.48 66.46 82.92 59.84 C 84.60 59.81 86.27 59.79 87.95 59.79 C 89.11 60.94 90.09 62.69 91.98 62.56 C 94.00 62.89 96.50 61.32 95.49 59.06 C 92.59 57.55 89.24 57.23 86.34 55.72 C 83.51 54.32 82.65 50.22 84.75 47.84 Z" />
<path fill="#901c1c" opacity="1.00" d=" M 119.49 48.04 C 122.23 45.02 126.77 43.73 130.51 45.66 C 138.25 49.42 137.91 62.65 129.91 65.89 C 126.21 67.46 122.23 65.97 119.44 63.37 C 119.44 67.70 119.42 72.04 119.47 76.38 C 117.70 76.37 115.93 76.37 114.17 76.36 C 114.29 65.94 114.20 55.52 114.22 45.10 C 115.94 45.09 117.67 45.09 119.40 45.09 C 119.42 45.82 119.47 47.30 119.49 48.04 M 122.18 50.13 C 117.37 52.82 118.98 62.19 124.96 61.81 C 130.50 62.46 132.67 54.32 129.05 50.98 C 127.38 49.09 124.27 49.08 122.18 50.13 Z" />
<path fill="#901c1c" opacity="1.00" d=" M 173.61 44.83 C 177.00 44.43 180.57 45.60 182.93 48.09 C 186.80 52.26 186.72 59.57 182.54 63.50 C 178.11 67.84 169.84 67.52 166.14 62.38 C 161.51 56.05 165.17 45.18 173.61 44.83 M 171.94 50.08 C 168.87 52.07 168.56 56.69 170.32 59.62 C 172.78 63.78 180.08 61.97 180.33 57.03 C 181.77 52.21 176.47 47.26 171.94 50.08 Z" />
<path fill="#901c1c" opacity="1.00" d=" M 233.44 45.62 C 237.19 43.76 241.63 45.05 244.50 47.89 C 244.52 47.18 244.56 45.75 244.58 45.03 C 246.24 45.05 247.91 45.07 249.58 45.08 C 249.56 52.41 249.64 59.75 249.57 67.08 C 249.69 70.25 248.07 73.51 245.28 75.10 C 239.41 78.48 230.10 76.39 228.44 69.13 C 230.31 69.27 232.68 68.18 234.13 69.82 C 236.13 72.18 239.67 72.50 242.37 71.32 C 245.01 69.51 244.48 66.06 244.59 63.28 C 241.76 65.85 237.83 67.47 234.07 65.94 C 225.96 62.72 225.56 49.33 233.44 45.62 M 235.98 50.08 C 230.96 52.83 232.90 62.55 239.10 61.82 C 243.11 62.12 245.34 57.35 244.42 53.91 C 243.68 50.20 239.21 48.28 235.98 50.08 Z" />
<path fill="#901c1c" opacity="1.00" d=" M 348.15 49.32 C 351.91 43.13 362.56 43.21 366.00 49.69 C 367.34 51.93 367.34 54.60 367.44 57.12 C 362.00 57.23 356.54 56.85 351.13 57.41 C 352.30 59.39 353.42 61.84 355.93 62.34 C 358.19 62.99 359.90 61.19 361.42 59.84 C 363.27 59.80 365.12 59.80 366.99 59.82 C 364.71 65.87 357.06 68.33 351.55 65.17 C 346.11 62.15 345.06 54.36 348.15 49.32 M 351.23 53.60 C 354.91 53.80 358.60 53.79 362.29 53.66 C 361.64 51.21 359.79 48.88 357.00 49.10 C 354.07 48.69 352.39 51.38 351.23 53.60 Z" />
<path fill="#901c1c" opacity="1.00" d=" M 370.81 52.91 C 369.15 47.70 375.17 44.09 379.73 44.78 C 383.73 44.69 386.62 47.85 387.80 51.41 C 386.10 51.52 384.42 51.60 382.73 51.68 C 382.41 51.12 381.76 49.99 381.44 49.42 C 378.99 48.43 376.56 48.83 374.90 51.01 C 377.78 54.21 382.66 53.54 385.84 56.25 C 388.27 58.37 388.12 62.67 385.49 64.57 C 380.49 68.47 371.42 66.48 369.90 59.83 C 371.57 59.81 373.24 59.79 374.92 59.80 C 376.07 60.93 377.05 62.69 378.93 62.56 C 380.93 62.88 383.43 61.33 382.48 59.09 C 378.72 56.84 372.85 57.46 370.81 52.91 Z" />
<path fill="#901c1c" opacity="1.00" d=" M 65.32 45.48 C 71.02 43.14 78.41 46.35 79.86 52.51 C 82.03 58.95 76.88 66.55 69.98 66.47 C 64.42 67.12 59.01 62.71 58.71 57.10 C 57.97 52.30 60.67 47.14 65.32 45.48 M 64.44 52.54 C 62.27 56.39 64.95 62.96 70.02 61.80 C 73.28 62.01 74.47 58.48 75.28 55.97 C 74.68 54.23 74.63 52.13 73.15 50.84 C 70.66 48.27 65.70 49.10 64.44 52.54 Z" />
<path fill="#901c1c" opacity="1.00" d=" M 210.36 45.40 C 216.25 43.10 223.89 46.73 224.87 53.22 C 226.90 60.21 220.17 67.68 212.97 66.44 C 206.80 66.28 202.51 59.86 203.52 54.02 C 203.98 50.17 206.65 46.66 210.36 45.40 M 212.47 49.61 C 206.73 51.24 207.61 62.24 213.99 61.82 C 217.75 62.47 220.39 58.28 219.76 54.90 C 219.97 51.21 215.89 48.32 212.47 49.61 Z" />
<path fill="#901c1c" opacity="1.00" d=" M 255.16 45.07 C 256.87 45.08 258.59 45.09 260.31 45.10 C 260.30 45.90 260.29 47.49 260.28 48.28 C 262.03 46.42 264.16 45.00 266.70 44.48 C 266.77 46.42 266.80 48.36 266.84 50.30 C 264.57 50.50 261.53 50.23 260.58 52.86 C 259.99 57.29 260.42 61.79 260.33 66.25 C 258.48 66.24 256.63 66.23 254.79 66.22 C 255.38 59.18 255.01 52.12 255.16 45.07 Z" />
<path fill="#901c1c" opacity="1.00" d=" M 275.28 45.41 C 279.00 43.77 283.02 45.27 285.85 47.88 C 285.84 47.18 285.82 45.78 285.81 45.08 C 287.61 45.11 289.42 45.14 291.23 45.19 C 290.96 52.20 291.28 59.21 291.19 66.22 C 289.39 66.23 287.59 66.24 285.80 66.24 C 285.82 65.51 285.85 64.05 285.87 63.32 C 283.12 66.13 278.84 67.49 275.14 65.78 C 267.18 62.24 267.16 48.77 275.28 45.41 M 277.27 50.07 C 273.80 52.27 273.46 57.72 276.42 60.49 C 277.93 62.25 280.56 61.93 282.59 61.53 C 286.91 59.31 287.02 52.28 282.79 49.90 C 281.05 49.38 278.90 49.18 277.27 50.07 Z" />
<path fill="#901c1c" opacity="1.00" d=" M 296.39 45.11 C 298.13 45.09 299.87 45.08 301.61 45.07 C 301.61 45.80 301.60 47.28 301.59 48.01 C 304.40 45.22 308.73 43.71 312.48 45.53 C 320.41 49.00 320.31 62.15 312.52 65.73 C 308.75 67.55 304.44 66.05 301.60 63.27 C 301.64 67.64 301.60 72.01 301.65 76.38 C 299.89 76.38 298.12 76.37 296.36 76.37 C 296.44 65.95 296.39 55.53 296.39 45.11 M 305.13 49.81 C 299.62 51.90 300.82 62.02 307.03 61.81 C 310.69 62.48 313.38 58.72 312.88 55.35 C 313.44 51.24 308.81 48.21 305.13 49.81 Z" />
</g>
</svg>
